<svg width="9" height="5" viewBox="0 0 9 5" fill="none" xmlns="http://www.w3.org/2000/svg">
<path d="M3.9673 4.61756L0.220387 1.17973C0.150516 1.11562 0.0950911 1.03951 0.057277 0.955751C0.0194629 0.87199 0 0.782216 0 0.691554C0 0.508453 0.0792757 0.332852 0.220387 0.203381C0.290258 0.139273 0.373208 0.0884202 0.464499 0.0537253C0.55579 0.0190305 0.653636 0.00117373 0.752449 0.00117373C0.95201 0.00117373 1.1434 0.0739097 1.28451 0.203381L4.49936 3.15992L7.71421 0.203381C7.78388 0.138937 7.86676 0.0877857 7.95808 0.0528788C8.0494 0.017972 8.14735 0 8.24627 0C8.3452 0 8.44315 0.017972 8.53447 0.0528788C8.62579 0.0877857 8.70867 0.138937 8.77833 0.203381C8.84857 0.267299 8.90432 0.343345 8.94237 0.427131C8.98041 0.510918 9 0.600787 9 0.691554C9 0.782321 8.98041 0.872189 8.94237 0.955976C8.90432 1.03976 8.84857 1.11581 8.77833 1.17973L5.03142 4.61756C4.96176 4.682 4.87888 4.73316 4.78756 4.76806C4.69624 4.80297 4.59829 4.82094 4.49936 4.82094C4.40043 4.82094 4.30248 4.80297 4.21117 4.76806C4.11985 4.73316 4.03696 4.682 3.9673 4.61756Z" fill="white"/>
</svg>
