<svg width="43" height="43" viewBox="0 0 43 43" fill="none" xmlns="http://www.w3.org/2000/svg">
<path d="M32.0255 13.9379C32.4388 13.5478 32.6802 13.0095 32.6966 12.4414C32.7131 11.8733 32.5031 11.322 32.1131 10.9087C31.723 10.4954 31.1847 10.2539 30.6166 10.2375C30.0485 10.2211 29.4972 10.431 29.0839 10.8211L21.2919 18.1752L13.9379 10.3832C13.5478 9.96993 13.0095 9.72851 12.4414 9.71209C11.8734 9.69567 11.322 9.90559 10.9087 10.2957C10.4954 10.6858 10.254 11.224 10.2376 11.7921C10.2211 12.3602 10.4311 12.9116 10.8211 13.3249L18.1752 21.1168L10.3833 28.4708C9.96996 28.8609 9.72854 29.3992 9.71212 29.9673C9.69569 30.5354 9.90562 31.0867 10.2957 31.5C10.6858 31.9133 11.2241 32.1547 11.7922 32.1712C12.3602 32.1876 12.9116 31.9777 13.3249 31.5876L21.1168 24.2335L28.4709 32.0254C28.8609 32.4388 29.3992 32.6802 29.9673 32.6966C30.5354 32.713 31.0867 32.5031 31.5 32.113C31.9134 31.7229 32.1548 31.1846 32.1712 30.6166C32.1876 30.0485 31.9777 29.4971 31.5876 29.0838L24.2336 21.2919L32.0255 13.9379Z" fill="#FF0000"/>
</svg>
