<svg width="12" height="12" viewBox="0 0 12 12" fill="none" xmlns="http://www.w3.org/2000/svg">
<path d="M6.70469 5.13566L1.71296 0.285291C1.61988 0.194843 1.50937 0.123095 1.38775 0.0741449C1.26613 0.0251947 1.13578 0 1.00413 0C0.738274 0 0.483301 0.102622 0.295309 0.285291C0.202225 0.375739 0.128386 0.483117 0.0780091 0.601293C0.0276322 0.71947 0.00170425 0.84613 0.00170425 0.974044C0.00170425 1.23238 0.107317 1.48013 0.295309 1.6628L4.5882 5.82442L0.295309 9.98603C0.201736 10.0762 0.127465 10.1835 0.07678 10.3017C0.0260953 10.4199 0 10.5467 0 10.6748C0 10.8028 0.0260953 10.9296 0.07678 11.0479C0.127465 11.1661 0.201736 11.2734 0.295309 11.3635C0.388118 11.4545 0.498536 11.5266 0.620194 11.5759C0.741852 11.6251 0.872341 11.6505 1.00413 11.6505C1.13593 11.6505 1.26642 11.6251 1.38808 11.5759C1.50973 11.5266 1.62015 11.4545 1.71296 11.3635L6.70469 6.51317C6.79826 6.42299 6.87254 6.3157 6.92322 6.19748C6.97391 6.07927 7 5.95248 7 5.82442C7 5.69635 6.97391 5.56956 6.92322 5.45135C6.87254 5.33313 6.79826 5.22584 6.70469 5.13566Z" fill="#F5313C"/>
<path d="M11.7047 5.13566L6.71296 0.285291C6.61988 0.194843 6.50937 0.123095 6.38775 0.0741449C6.26613 0.0251947 6.13578 0 6.00413 0C5.73827 0 5.4833 0.102622 5.29531 0.285291C5.20222 0.375739 5.12839 0.483117 5.07801 0.601293C5.02763 0.71947 5.0017 0.84613 5.0017 0.974044C5.0017 1.23238 5.10732 1.48013 5.29531 1.6628L9.5882 5.82442L5.29531 9.98603C5.20174 10.0762 5.12746 10.1835 5.07678 10.3017C5.0261 10.4199 5 10.5467 5 10.6748C5 10.8028 5.0261 10.9296 5.07678 11.0479C5.12746 11.1661 5.20174 11.2734 5.29531 11.3635C5.38812 11.4545 5.49854 11.5266 5.62019 11.5759C5.74185 11.6251 5.87234 11.6505 6.00413 11.6505C6.13593 11.6505 6.26642 11.6251 6.38808 11.5759C6.50973 11.5266 6.62015 11.4545 6.71296 11.3635L11.7047 6.51317C11.7983 6.42299 11.8725 6.3157 11.9232 6.19748C11.9739 6.07927 12 5.95248 12 5.82442C12 5.69635 11.9739 5.56956 11.9232 5.45135C11.8725 5.33313 11.7983 5.22584 11.7047 5.13566Z" fill="#F5313C"/>
</svg>
