<svg width="35" height="32" viewBox="0 0 35 32" fill="none" xmlns="http://www.w3.org/2000/svg">
<path d="M17.675 27.4223L17.5 27.5858L17.3075 27.4223C8.995 20.376 3.5 15.7166 3.5 10.9918C3.5 7.72207 6.125 5.26975 9.625 5.26975C12.32 5.26975 16.5725 6.90463 17.5 9.12807C18.4275 6.90463 22.68 5.26975 25.375 5.26975C28.875 5.26975 31.5 7.72207 31.5 10.9918C31.5 15.7166 26.005 20.376 17.675 27.4223ZM25.375 2C22.33 2 19.4075 3.32425 17.5 5.40054C15.5925 3.32425 12.67 2 9.625 2C4.235 2 0 5.94005 0 10.9918C0 17.1553 5.95 22.2071 14.9625 29.842L17.5 32L20.0375 29.842C29.05 22.2071 35 17.1553 35 10.9918C35 5.94005 30.765 2 25.375 2Z" fill="white"/>
</svg>
