<svg width="180" height="45" viewBox="0 0 180 45" fill="none" xmlns="http://www.w3.org/2000/svg">
<path d="M10.643 32.29C8.729 32.29 7.08567 32 5.713 31.42C4.34033 30.8207 3.26733 29.9313 2.494 28.752C1.72067 27.5727 1.305 26.113 1.247 24.373C1.22767 23.561 1.218 22.691 1.218 21.763C1.218 20.8157 1.22767 19.9263 1.247 19.095C1.305 17.413 1.72067 16.0017 2.494 14.861C3.28667 13.7203 4.379 12.86 5.771 12.28C7.163 11.7 8.787 11.41 10.643 11.41C12.1317 11.41 13.456 11.584 14.616 11.932C15.776 12.28 16.762 12.7537 17.574 13.353C18.4053 13.9523 19.0337 14.629 19.459 15.383C19.9037 16.1177 20.1357 16.8813 20.155 17.674C20.155 17.848 20.0873 17.993 19.952 18.109C19.836 18.225 19.691 18.283 19.517 18.283H14.181C13.9877 18.283 13.833 18.254 13.717 18.196C13.601 18.138 13.4947 18.051 13.398 17.935C13.3013 17.7417 13.1467 17.5193 12.934 17.268C12.7407 17.0167 12.4603 16.804 12.093 16.63C11.7257 16.4367 11.2423 16.34 10.643 16.34C9.73433 16.34 9.02867 16.572 8.526 17.036C8.02333 17.5 7.75267 18.2347 7.714 19.24C7.656 20.864 7.656 22.5267 7.714 24.228C7.75267 25.33 8.033 26.1323 8.555 26.635C9.09633 27.1183 9.82133 27.36 10.73 27.36C11.3293 27.36 11.861 27.2633 12.325 27.07C12.8083 26.8767 13.1853 26.577 13.456 26.171C13.7267 25.7457 13.862 25.2043 13.862 24.547V24.257H11.803C11.5903 24.257 11.4067 24.1797 11.252 24.025C11.1167 23.8703 11.049 23.6963 11.049 23.503V20.806C11.049 20.5933 11.1167 20.4193 11.252 20.284C11.4067 20.1293 11.5903 20.052 11.803 20.052H19.43C19.6427 20.052 19.8263 20.1293 19.981 20.284C20.1357 20.4193 20.213 20.5933 20.213 20.806V24.344C20.213 26.0453 19.807 27.4857 18.995 28.665C18.183 29.8443 17.0617 30.7433 15.631 31.362C14.2003 31.9807 12.5377 32.29 10.643 32.29ZM21.6544 32C21.4804 32 21.3354 31.942 21.2194 31.826C21.1034 31.6907 21.0454 31.536 21.0454 31.362C21.0454 31.2847 21.0551 31.217 21.0744 31.159L27.6864 12.599C27.7637 12.3863 27.8991 12.1833 28.0924 11.99C28.2857 11.7967 28.5564 11.7 28.9044 11.7H34.2114C34.5787 11.7 34.8591 11.7967 35.0524 11.99C35.2457 12.1833 35.3714 12.3863 35.4294 12.599L42.0704 31.159C42.0897 31.217 42.0994 31.2847 42.0994 31.362C42.0994 31.536 42.0317 31.6907 41.8964 31.826C41.7804 31.942 41.6354 32 41.4614 32H36.9954C36.6667 32 36.4251 31.9227 36.2704 31.768C36.1157 31.6133 36.0094 31.4683 35.9514 31.333L35.0524 28.897H28.0634L27.1644 31.333C27.1064 31.4683 27.0001 31.6133 26.8454 31.768C26.7101 31.9227 26.4684 32 26.1204 32H21.6544ZM29.3974 23.996H33.7184L31.5434 17.471L29.3974 23.996ZM78.8752 32C78.6819 32 78.5079 31.9323 78.3532 31.797C78.1986 31.6423 78.1212 31.4587 78.1212 31.246V12.454C78.1212 12.2413 78.1986 12.0673 78.3532 11.932C78.5079 11.7773 78.6819 11.7 78.8752 11.7H93.0852C93.2979 11.7 93.4816 11.7773 93.6362 11.932C93.7909 12.0673 93.8682 12.2413 93.8682 12.454V15.876C93.8682 16.0693 93.7909 16.2433 93.6362 16.398C93.4816 16.5527 93.2979 16.63 93.0852 16.63H84.1242V19.501H92.4472C92.6599 19.501 92.8436 19.5783 92.9982 19.733C93.1529 19.8683 93.2302 20.0423 93.2302 20.255V23.387C93.2302 23.5997 93.1529 23.7833 92.9982 23.938C92.8436 24.0733 92.6599 24.141 92.4472 24.141H84.1242V27.07H93.3172C93.5299 27.07 93.7136 27.1473 93.8682 27.302C94.0229 27.4567 94.1002 27.6403 94.1002 27.853V31.246C94.1002 31.4587 94.0229 31.6423 93.8682 31.797C93.7136 31.9323 93.5299 32 93.3172 32H78.8752ZM105.771 32.29C103.857 32.29 102.214 32 100.841 31.42C99.4683 30.8207 98.3953 29.9313 97.6219 28.752C96.8486 27.5727 96.4329 26.113 96.3749 24.373C96.3556 23.561 96.3459 22.691 96.3459 21.763C96.3459 20.8157 96.3556 19.9263 96.3749 19.095C96.4329 17.413 96.8486 16.0017 97.6219 14.861C98.4146 13.7203 99.5069 12.86 100.899 12.28C102.291 11.7 103.915 11.41 105.771 11.41C107.26 11.41 108.584 11.584 109.744 11.932C110.904 12.28 111.89 12.7537 112.702 13.353C113.533 13.9523 114.162 14.629 114.587 15.383C115.032 16.1177 115.264 16.8813 115.283 17.674C115.283 17.848 115.215 17.993 115.08 18.109C114.964 18.225 114.819 18.283 114.645 18.283H109.309C109.116 18.283 108.961 18.254 108.845 18.196C108.729 18.138 108.623 18.051 108.526 17.935C108.429 17.7417 108.275 17.5193 108.062 17.268C107.869 17.0167 107.588 16.804 107.221 16.63C106.854 16.4367 106.37 16.34 105.771 16.34C104.862 16.34 104.157 16.572 103.654 17.036C103.151 17.5 102.881 18.2347 102.842 19.24C102.784 20.864 102.784 22.5267 102.842 24.228C102.881 25.33 103.161 26.1323 103.683 26.635C104.224 27.1183 104.949 27.36 105.858 27.36C106.457 27.36 106.989 27.2633 107.453 27.07C107.936 26.8767 108.313 26.577 108.584 26.171C108.855 25.7457 108.99 25.2043 108.99 24.547V24.257H106.931C106.718 24.257 106.535 24.1797 106.38 24.025C106.245 23.8703 106.177 23.6963 106.177 23.503V20.806C106.177 20.5933 106.245 20.4193 106.38 20.284C106.535 20.1293 106.718 20.052 106.931 20.052H114.558C114.771 20.052 114.954 20.1293 115.109 20.284C115.264 20.4193 115.341 20.5933 115.341 20.806V24.344C115.341 26.0453 114.935 27.4857 114.123 28.665C113.311 29.8443 112.19 30.7433 110.759 31.362C109.328 31.9807 107.666 32.29 105.771 32.29ZM119.033 32C118.84 32 118.666 31.9323 118.511 31.797C118.357 31.6423 118.279 31.4587 118.279 31.246V12.454C118.279 12.2413 118.357 12.0673 118.511 11.932C118.666 11.7773 118.84 11.7 119.033 11.7H127.298C129.928 11.7 131.987 12.2993 133.475 13.498C134.983 14.6967 135.737 16.369 135.737 18.515C135.737 19.8683 135.428 21.0187 134.809 21.966C134.191 22.9133 133.379 23.6577 132.373 24.199L136.143 31.043C136.201 31.159 136.23 31.2653 136.23 31.362C136.23 31.536 136.172 31.6907 136.056 31.826C135.94 31.942 135.795 32 135.621 32H130.72C130.353 32 130.073 31.913 129.879 31.739C129.686 31.5457 129.56 31.3717 129.502 31.217L126.602 25.243H124.514V31.246C124.514 31.4587 124.437 31.6423 124.282 31.797C124.147 31.9323 123.973 32 123.76 32H119.033ZM124.514 20.458H127.269C127.946 20.458 128.449 20.2743 128.777 19.907C129.106 19.5203 129.27 19.0467 129.27 18.486C129.27 17.906 129.106 17.413 128.777 17.007C128.468 16.601 127.965 16.398 127.269 16.398H124.514V20.458ZM137.739 32C137.565 32 137.42 31.942 137.304 31.826C137.188 31.6907 137.13 31.536 137.13 31.362C137.13 31.2847 137.14 31.217 137.159 31.159L143.771 12.599C143.849 12.3863 143.984 12.1833 144.177 11.99C144.371 11.7967 144.641 11.7 144.989 11.7H150.296C150.664 11.7 150.944 11.7967 151.137 11.99C151.331 12.1833 151.456 12.3863 151.514 12.599L158.155 31.159C158.175 31.217 158.184 31.2847 158.184 31.362C158.184 31.536 158.117 31.6907 157.981 31.826C157.865 31.942 157.72 32 157.546 32H153.08C152.752 32 152.51 31.9227 152.355 31.768C152.201 31.6133 152.094 31.4683 152.036 31.333L151.137 28.897H144.148L143.249 31.333C143.191 31.4683 143.085 31.6133 142.93 31.768C142.795 31.9227 142.553 32 142.205 32H137.739ZM145.482 23.996H149.803L147.628 17.471L145.482 23.996ZM160.863 32C160.669 32 160.495 31.9323 160.341 31.797C160.186 31.6423 160.109 31.4587 160.109 31.246V12.454C160.109 12.2413 160.186 12.0673 160.341 11.932C160.495 11.7773 160.669 11.7 160.863 11.7H168.809C170.684 11.7 172.308 12.0093 173.681 12.628C175.053 13.2273 176.136 14.1167 176.929 15.296C177.721 16.4753 178.147 17.9253 178.205 19.646C178.243 20.4773 178.263 21.212 178.263 21.85C178.263 22.488 178.243 23.213 178.205 24.025C178.127 25.8423 177.712 27.3407 176.958 28.52C176.223 29.6993 175.179 30.579 173.826 31.159C172.472 31.7197 170.848 32 168.954 32H160.863ZM166.344 27.07H168.809C169.447 27.07 169.988 26.9637 170.433 26.751C170.877 26.5383 171.225 26.2097 171.477 25.765C171.728 25.301 171.863 24.7113 171.883 23.996C171.902 23.4353 171.912 22.9327 171.912 22.488C171.931 22.0433 171.931 21.5987 171.912 21.154C171.912 20.7093 171.902 20.2163 171.883 19.675C171.844 18.6117 171.535 17.8383 170.955 17.355C170.394 16.8717 169.63 16.63 168.664 16.63H166.344V27.07Z" fill="white"/>
<path fill-rule="evenodd" clip-rule="evenodd" d="M50.182 20.8929H52.3638V23.3571H54.5456V20.8929H56.7274V23.3571H58.9092V20.8929H61.091V23.3571H63.2729V17.1967L67.6365 12.2683L72.0001 17.1967V31.9817H60.0001V28.2854C60.0001 27.6319 59.7703 27.0051 59.3611 26.543C58.9519 26.0809 58.397 25.8213 57.8183 25.8213C57.2397 25.8213 56.6847 26.0809 56.2755 26.543C55.8664 27.0051 55.6365 27.6319 55.6365 28.2854V31.9817H50.182V20.8929ZM66.5456 18.6752C66.5456 17.862 67.0365 17.1967 67.6365 17.1967C68.2365 17.1967 68.7274 17.862 68.7274 18.6752V20.8929H66.5456V18.6752Z" fill="white"/>
<path fill-rule="evenodd" clip-rule="evenodd" d="M69.8182 20.8929H67.6364V23.3571H65.4545V20.8929H63.2727L63.2729 23.3571H61.091V20.8929H58.9092V23.3571H56.7274L56.7273 17.1967L52.3636 12.2683L48 17.1967V31.9817H60.0001V28.2854C60.0001 27.6319 60.2299 27.0051 60.639 26.543C61.0482 26.0809 61.6032 25.8213 62.1818 25.8213C62.7605 25.8213 63.3154 26.0809 63.7246 26.543C64.1338 27.0051 64.3636 27.6319 64.3636 28.2854V31.9817H69.8182V20.8929ZM53.4545 18.6752C53.4545 17.862 52.9636 17.1967 52.3636 17.1967C51.7636 17.1967 51.2727 17.862 51.2727 18.6752V20.8929H53.4545V18.6752Z" fill="white"/>
<path d="M50.0003 20.8576H52.1908V23.1105H54.3813V20.8576H56.5717V23.1105H58.7622V20.8576H60.9527V23.1105H63.1432V17.4781L66.4289 14.0987V7.33984H68.6194L73.0003 9.5928L68.6194 11.8458V14.0987L71.9051 17.4781V30.9959H59.8575V27.6164C59.8575 27.0189 59.6267 26.4459 59.2159 26.0234C58.8051 25.6009 58.2479 25.3635 57.667 25.3635C57.086 25.3635 56.5289 25.6009 56.1181 26.0234C55.7073 26.4459 55.4765 27.0189 55.4765 27.6164V30.9959H50.0003V20.8576ZM67.5241 17.4781C66.9217 17.4781 66.4289 18.0864 66.4289 18.8299V20.8576H68.6194V18.8299C68.6194 18.0864 68.1265 17.4781 67.5241 17.4781Z" fill="white"/>
</svg>
