<svg width="7" height="12" viewBox="0 0 7 12" fill="none" xmlns="http://www.w3.org/2000/svg">
<path d="M6.70469 5.13566L1.71296 0.285291C1.61988 0.194843 1.50937 0.123095 1.38775 0.0741449C1.26613 0.0251947 1.13578 0 1.00413 0C0.738274 0 0.483301 0.102622 0.295309 0.285291C0.202225 0.375739 0.128386 0.483117 0.0780091 0.601293C0.0276322 0.71947 0.00170425 0.84613 0.00170425 0.974044C0.00170425 1.23238 0.107317 1.48013 0.295309 1.6628L4.5882 5.82442L0.295309 9.98603C0.201736 10.0762 0.127465 10.1835 0.07678 10.3017C0.0260953 10.4199 0 10.5467 0 10.6748C0 10.8028 0.0260953 10.9296 0.07678 11.0479C0.127465 11.1661 0.201736 11.2734 0.295309 11.3635C0.388118 11.4545 0.498536 11.5266 0.620194 11.5759C0.741852 11.6251 0.872341 11.6505 1.00413 11.6505C1.13593 11.6505 1.26642 11.6251 1.38808 11.5759C1.50973 11.5266 1.62015 11.4545 1.71296 11.3635L6.70469 6.51317C6.79826 6.42299 6.87254 6.3157 6.92322 6.19748C6.97391 6.07927 7 5.95248 7 5.82442C7 5.69635 6.97391 5.56956 6.92322 5.45135C6.87254 5.33313 6.79826 5.22584 6.70469 5.13566Z" fill="#F5313C"/>
</svg>
