<svg width="16" height="15" viewBox="0 0 16 15" fill="none" xmlns="http://www.w3.org/2000/svg">
<path d="M8 7.4973C6.9 7.4973 5.95833 7.13025 5.175 6.39614C4.39167 5.66203 4 4.77953 4 3.74865C4 2.71777 4.39167 1.83528 5.175 1.10117C5.95833 0.367056 6.9 0 8 0C9.1 0 10.0417 0.367056 10.825 1.10117C11.6083 1.83528 12 2.71777 12 3.74865C12 4.77953 11.6083 5.66203 10.825 6.39614C10.0417 7.13025 9.1 7.4973 8 7.4973ZM0 14.9946V12.3706C0 11.8395 0.146 11.3515 0.438 10.9067C0.73 10.4619 1.11733 10.122 1.6 9.88707C2.63333 9.40287 3.68333 9.03987 4.75 8.79808C5.81667 8.5563 6.9 8.43509 8 8.43447C9.1 8.43384 10.1833 8.55505 11.25 8.79808C12.3167 9.04112 13.3667 9.40412 14.4 9.88707C14.8833 10.1214 15.271 10.4612 15.563 10.9067C15.855 11.3522 16.0007 11.8401 16 12.3706V14.9946H0Z" fill="white"/>
</svg>
