<svg width="40" height="40" viewBox="0 0 40 40" fill="none" xmlns="http://www.w3.org/2000/svg">
<circle cx="20" cy="20" r="20" fill="#5C7A9D"/>
<path fill-rule="evenodd" clip-rule="evenodd" d="M26.9283 11.113C27.1742 11.0129 27.4434 10.9784 27.7078 11.0131C27.9722 11.0477 28.2221 11.1501 28.4316 11.3098C28.6411 11.4694 28.8025 11.6804 28.899 11.9208C28.9955 12.1612 29.0235 12.4221 28.9802 12.6765L26.7234 25.9054C26.5044 27.1814 25.0556 27.9132 23.8446 27.2776C22.8316 26.7458 21.327 25.9265 19.9737 25.0717C19.297 24.6437 17.2243 23.2735 17.479 22.2984C17.6979 21.4647 21.1807 18.3318 23.1709 16.4691C23.952 15.7373 23.5958 15.3152 22.6734 15.9883C20.3827 17.6596 16.7048 20.2011 15.4888 20.9166C14.4161 21.5474 13.8569 21.6551 13.1882 21.5474C11.9682 21.3512 10.8368 21.0473 9.91338 20.6771C8.66554 20.1771 8.72624 18.5193 9.91238 18.0365L26.9283 11.113Z" fill="white"/>
</svg>
