<svg width="40" height="40" viewBox="0 0 40 40" fill="none" xmlns="http://www.w3.org/2000/svg">
<circle cx="20" cy="20" r="20" fill="#5C7A9D"/>
<path d="M29.1562 25.6537H26.8568C25.9872 25.6537 25.7253 24.9958 24.1665 23.5386C22.8042 22.3121 22.2289 22.1596 21.8843 22.1596C21.4077 22.1596 21.2777 22.282 21.2777 22.8948V24.8263C21.2777 25.3488 21.0963 25.6547 19.6353 25.6547C18.2179 25.5657 16.8434 25.1635 15.625 24.481C14.4066 23.7986 13.3792 22.8555 12.6274 21.7295C10.8429 19.6535 9.60094 17.2176 9 14.6151C9 14.2932 9.13099 14.0014 9.78795 14.0014H12.0853C12.6757 14.0014 12.8884 14.2471 13.1201 14.8147C14.2355 17.8814 16.1389 20.5491 16.9117 20.5491C17.208 20.5491 17.3369 20.4267 17.3369 19.7367V16.5777C17.2392 15.1366 16.42 15.0152 16.42 14.4937C16.4304 14.3561 16.4977 14.2277 16.6078 14.1358C16.7179 14.0439 16.862 13.9956 17.0095 14.0014H20.6207C21.1145 14.0014 21.2777 14.231 21.2777 14.7827V19.0467C21.2777 19.507 21.4893 19.6595 21.6384 19.6595C21.9346 19.6595 22.1624 19.507 22.7055 19.0006C23.8691 17.674 24.8202 16.1964 25.5288 14.6142C25.601 14.424 25.7379 14.2612 25.9186 14.1507C26.0994 14.0401 26.3139 13.988 26.5293 14.0023H28.8277C29.5169 14.0023 29.663 14.3242 29.5169 14.7836C28.6807 16.5328 27.6464 18.1933 26.4316 19.7367C26.1837 20.0897 26.085 20.2733 26.4316 20.6874C26.6593 21.0094 27.4654 21.6381 28.0065 22.2359C28.7944 22.9701 29.4484 23.8191 29.9431 24.7491C30.1406 25.3478 29.8121 25.6537 29.1562 25.6537Z" fill="white"/>
</svg>
